<svg width="26" height="31" viewBox="0 0 26 31" fill="none" xmlns="http://www.w3.org/2000/svg">
<g clip-path="url(#clip0_658_347)">
<path fill-rule="evenodd" clip-rule="evenodd" d="M12.8494 24.3885C12.5848 24.3885 12.3701 24.1379 12.3701 23.8245V23.8196C12.3701 23.5062 12.5848 23.2525 12.8494 23.2525C13.1146 23.2525 13.3293 23.5062 13.3293 23.8196C13.3293 24.1324 13.1146 24.3885 12.8494 24.3885ZM12.4244 5.20741L12.4402 5.16472C12.4244 5.20164 12.4139 5.24066 12.4091 5.28058C12.4091 5.25619 12.414 5.2318 12.4244 5.20741ZM12.5177 5.01046C12.5318 4.99279 12.5475 4.97646 12.5646 4.96168C12.5494 4.97997 12.528 4.99826 12.5177 5.01655M12.8348 4.82631H12.861C12.8198 4.82498 12.7788 4.83333 12.7415 4.8507C12.7619 4.83907 12.785 4.83278 12.8085 4.83241C12.8195 4.82631 12.8244 4.82631 12.8348 4.82631Z" fill="#00B3B2"/>
<mask id="mask0_658_347" style="mask-type:luminance" maskUnits="userSpaceOnUse" x="7" y="0" width="18" height="30">
<path d="M13.4192 2.58902L12.0948 5.50426C12.082 5.52255 12.0692 5.54755 12.0564 5.57255C12.0564 5.57865 12.0503 5.57865 12.0503 5.58475V5.59085C12.0429 5.60529 12.0364 5.62016 12.0308 5.63536L12.0314 5.63414L12.0308 5.63597C12.0222 5.65968 12.0161 5.68419 12.0125 5.70914C12.0125 5.68902 12.0161 5.66951 12.0247 5.64999L8.08808 14.2597C7.96613 14.5274 7.90312 14.8181 7.90332 15.1122C7.90332 15.4036 7.96491 15.6963 8.08808 15.9689L10.0308 20.2664C10.0764 20.3687 10.1509 20.4554 10.2452 20.5158C10.3394 20.5763 10.4493 20.6079 10.5612 20.6067C10.643 20.6067 10.7247 20.5884 10.8009 20.5579C10.903 20.5127 10.9898 20.4389 11.0508 20.3454C11.1118 20.2519 11.1445 20.1427 11.1448 20.0311C11.1449 19.9522 11.1287 19.8741 11.0972 19.8018L9.14783 15.5043C9.09176 15.3822 9.06265 15.2495 9.06247 15.1152C9.06247 14.9829 9.09113 14.8512 9.14783 14.7305L13.11 6.07012C13.1027 6.08231 13.0942 6.09207 13.085 6.10548C13.0972 6.08109 13.1094 6.05609 13.1228 6.03109C13.1289 6.02499 13.1289 6.02499 13.1289 6.0189L14.4978 3.00975C14.9076 1.85122 16.1698 1.17683 17.368 1.46097C19.4881 1.96097 20.5619 3.51585 20.5631 6.07621C20.5631 6.2128 20.56 6.35304 20.5539 6.49572C20.5466 6.6689 20.543 6.83963 20.543 7.00792C20.543 10.9408 22.4716 13.514 23.6576 14.725C23.7491 14.8177 23.7948 14.9402 23.7948 15.0622C23.7948 15.1847 23.7491 15.3067 23.6576 15.4C21.6435 17.4617 20.5242 20.2349 20.543 23.1171C20.543 23.2847 20.5466 23.4561 20.5539 23.6292C20.56 23.7713 20.5631 23.9097 20.5625 24.0469C20.5625 25.7481 20.0869 27.0122 19.1472 27.8091C17.4692 29.2329 14.7942 28.7622 14.7692 28.7561C14.6183 28.7286 14.4627 28.7611 14.3354 28.8466C14.2081 28.9322 14.1191 29.0639 14.0875 29.214C14.0623 29.3644 14.0972 29.5187 14.1845 29.6438C14.2718 29.7688 14.4047 29.8547 14.5545 29.8829C14.6052 29.889 15.1155 29.9823 15.8411 29.9823C16.971 29.9823 18.6234 29.7591 19.9039 28.6756C21.1173 27.6524 21.7308 26.0896 21.7302 24.0268C21.7302 23.8805 21.7271 23.7311 21.7204 23.5792C21.7143 23.4238 21.7113 23.2701 21.7113 23.1195C21.7119 19.5841 23.4375 17.2732 24.4966 16.1927L24.5033 16.1854L24.5387 16.1488L24.5393 16.1475L24.5454 16.1408L24.546 16.1402L24.5521 16.1335L24.5533 16.1323L24.5594 16.1262V16.125C24.5615 16.1228 24.5636 16.1206 24.5655 16.1183L24.5667 16.1171C24.5688 16.1151 24.5709 16.1131 24.5728 16.111V16.1097L24.5789 16.103C24.5811 16.1004 24.5834 16.0977 24.5856 16.0951L24.5917 16.0878L24.5923 16.0872L24.5984 16.0799L24.6045 16.0719L24.6052 16.0713L24.6113 16.064L24.6173 16.0561L24.6234 16.0482L24.6295 16.0402L24.6356 16.0323H24.6363L24.6417 16.0244H24.6423L24.6478 16.0164C24.6498 16.0138 24.6518 16.0111 24.6539 16.0085V16.0079L24.66 16.0006V16L24.6655 15.9927V15.9921L24.6716 15.9841C24.6728 15.9811 24.6747 15.9786 24.6771 15.9762L24.6826 15.9677C24.7836 15.8194 24.8589 15.6551 24.9052 15.4817L24.9076 15.4719L24.91 15.4628L24.9125 15.4536L24.9143 15.4445V15.4433C24.9152 15.4404 24.916 15.4376 24.9167 15.4347V15.4341C24.9174 15.4313 24.918 15.4285 24.9186 15.4256L24.9192 15.425L24.921 15.4158L24.9228 15.4067V15.4061L24.9253 15.3969L24.9271 15.3878L24.9289 15.3786V15.3774L24.9314 15.3695V15.3683L24.9332 15.3597V15.3585L24.935 15.35V15.3494C24.935 15.3463 24.9363 15.3433 24.9369 15.3408V15.3396L24.9381 15.3317V15.3299L24.9399 15.3219V15.3207L24.9411 15.3122V15.3116L24.9424 15.303V15.3018L24.9442 15.2939V15.2921C24.9445 15.2894 24.9449 15.2868 24.9454 15.2841V15.2823L24.9466 15.2744V15.2732C24.9471 15.2703 24.9475 15.2675 24.9478 15.2646V15.2634L24.9491 15.2555V15.2543L24.9503 15.2451L24.9515 15.2354L24.9521 15.2262V15.2256L24.9527 15.2183V15.2158L24.9539 15.2085V15.2067L24.9564 15.1805V15.1732L24.957 15.1683V15.1616V15.1591L24.9582 15.1494L24.9594 15.1213L24.96 15.0927V15.0414V15.0323V15.0311V15.0225V15.0134V15.0116L24.9594 15.0043V15.0012V14.9945V14.9914L24.9588 14.9854V14.9811L24.9582 14.9756C24.9468 14.7596 24.8921 14.5481 24.7972 14.3536L24.7966 14.3518L24.793 14.3439L24.7923 14.3433L24.7887 14.336L24.7869 14.3329L24.7844 14.3268C24.7838 14.3258 24.7832 14.3248 24.7826 14.3238L24.7802 14.3189L24.7777 14.3146L24.7753 14.3097C24.7746 14.3085 24.774 14.3073 24.7734 14.3061L24.771 14.3012L24.7686 14.2969L24.7661 14.2927L24.7637 14.2884L24.7613 14.2847L24.7588 14.2799C24.7583 14.2786 24.7577 14.2774 24.757 14.2762L24.7539 14.2707L24.7521 14.2677C24.751 14.2656 24.7498 14.2635 24.7484 14.2616C24.748 14.2608 24.7476 14.26 24.7472 14.2591L24.7436 14.253L24.7423 14.2512L24.7387 14.2451C24.7371 14.2422 24.7355 14.2394 24.7338 14.2366L24.7326 14.2341L24.7289 14.228L24.7277 14.2256C24.7262 14.2236 24.7248 14.2216 24.7234 14.2195C24.7234 14.2195 24.7234 14.2183 24.7222 14.2177L24.7186 14.2116C24.7167 14.2087 24.7149 14.2059 24.7131 14.203C24.7112 14.2003 24.7093 14.1974 24.7076 14.1945L24.707 14.1933L24.7027 14.1866L24.7015 14.1847C24.7001 14.1827 24.6987 14.1807 24.6972 14.1786C24.6968 14.1781 24.6964 14.1774 24.696 14.1768L24.6917 14.1707L24.6911 14.1683C24.6895 14.1663 24.6878 14.1643 24.6863 14.1622C24.6863 14.1616 24.6863 14.161 24.685 14.1604L24.6808 14.1543L24.6802 14.1524L24.6753 14.1463C24.6749 14.1457 24.6745 14.1451 24.6741 14.1445L24.6698 14.1378L24.6686 14.1366L24.6637 14.1299L24.6631 14.1286C24.6614 14.1262 24.6598 14.1238 24.6582 14.1213L24.6576 14.1207L24.6521 14.1134V14.1128L24.646 14.1055L24.6399 14.0975L24.6344 14.0896L24.6283 14.0823V14.0811L24.6222 14.0744V14.0738L24.6161 14.0665L24.61 14.0585C24.608 14.0561 24.6059 14.0537 24.6039 14.0512V14.0506L24.5978 14.0439L24.5972 14.0427L24.5911 14.036V14.0354C24.589 14.033 24.587 14.0305 24.585 14.028L24.5789 14.0207H24.5783C24.5633 14.0031 24.5478 13.9858 24.532 13.9689V13.9683L24.5253 13.9616L24.5247 13.961L24.5186 13.9543L24.5167 13.953L24.4972 13.9323C23.4381 12.8518 21.7125 10.5408 21.7119 7.00548C21.7119 6.85426 21.7149 6.7006 21.721 6.54511C21.7271 6.39572 21.7302 6.24938 21.7302 6.1067C21.7289 1.95122 19.1893 0.712192 17.646 0.346949C17.3667 0.280893 17.0806 0.247539 16.7936 0.247559C15.2911 0.247559 13.9192 1.16951 13.4192 2.58902ZM12.5289 5.2506H12.5606C12.5423 5.2506 12.5241 5.25121 12.5058 5.25304C12.5137 5.2506 12.5192 5.2506 12.5289 5.2506ZM12.1442 5.43597C12.1615 5.41796 12.1805 5.40162 12.2009 5.38719C12.182 5.40548 12.157 5.42377 12.1442 5.44207V5.43597Z" fill="white"/>
</mask>
<g mask="url(#mask0_658_347)">
<path fill-rule="evenodd" clip-rule="evenodd" d="M13.4192 2.58902L12.0948 5.50426C12.082 5.52255 12.0692 5.54755 12.0564 5.57255C12.0564 5.57865 12.0503 5.57865 12.0503 5.58475V5.59085C12.0429 5.60529 12.0364 5.62016 12.0308 5.63536C12.0222 5.65907 12.0161 5.68419 12.0125 5.70914C12.0125 5.68902 12.0161 5.66951 12.0247 5.64999L8.08808 14.2597C7.96613 14.5274 7.90312 14.8181 7.90332 15.1122C7.90332 15.4036 7.96491 15.6963 8.08808 15.9689L10.0308 20.2664C10.0764 20.3687 10.1509 20.4554 10.2452 20.5158C10.3394 20.5763 10.4493 20.6079 10.5612 20.6067C10.643 20.6067 10.7247 20.5884 10.8009 20.5579C10.903 20.5127 10.9898 20.4389 11.0508 20.3454C11.1118 20.2519 11.1445 20.1427 11.1448 20.0311C11.1449 19.9522 11.1287 19.8741 11.0972 19.8018L9.14783 15.5043C9.09176 15.3822 9.06265 15.2495 9.06247 15.1152C9.06247 14.9829 9.09113 14.8512 9.14783 14.7305L13.11 6.07012C13.1027 6.08231 13.0942 6.09207 13.085 6.10548C13.0972 6.08109 13.1094 6.05609 13.1228 6.03109C13.1289 6.02499 13.1289 6.02499 13.1289 6.0189L14.4978 3.00975C14.9076 1.85122 16.1698 1.17683 17.368 1.46097C19.4881 1.96097 20.5619 3.51585 20.5631 6.07621C20.5631 6.2128 20.56 6.35304 20.5539 6.49572C20.5466 6.6689 20.543 6.83963 20.543 7.00792C20.543 10.9408 22.4716 13.514 23.6576 14.725C23.7491 14.8177 23.7948 14.9402 23.7948 15.0622C23.7948 15.1847 23.7491 15.3067 23.6576 15.4C21.6435 17.4617 20.5242 20.2349 20.543 23.1171C20.543 23.2847 20.5466 23.4561 20.5539 23.6292C20.56 23.7713 20.5631 23.9097 20.5625 24.0469C20.5625 25.7481 20.0869 27.0122 19.1472 27.8091C17.4692 29.2329 14.7942 28.7622 14.7692 28.7561C14.6183 28.7286 14.4627 28.7611 14.3354 28.8466C14.2081 28.9322 14.1191 29.0639 14.0875 29.214C14.0623 29.3644 14.0972 29.5187 14.1845 29.6438C14.2718 29.7688 14.4047 29.8547 14.5545 29.8829C14.6052 29.889 15.1155 29.9823 15.8411 29.9823C16.971 29.9823 18.6234 29.7591 19.9039 28.6756C21.1173 27.6524 21.7308 26.0896 21.7302 24.0268C21.7302 23.8805 21.7271 23.7311 21.7204 23.5792C21.7143 23.4238 21.7113 23.2701 21.7113 23.1195C21.7119 19.5841 23.4375 17.2732 24.4966 16.1927L24.5033 16.1854L24.5387 16.1488L24.5393 16.1475L24.5454 16.1408L24.546 16.1402L24.5521 16.1335L24.5533 16.1323L24.5594 16.1262V16.125C24.5615 16.1228 24.5636 16.1206 24.5655 16.1183L24.5667 16.1171C24.5688 16.1151 24.5709 16.1131 24.5728 16.111V16.1097L24.5789 16.103C24.5811 16.1004 24.5834 16.0977 24.5856 16.0951L24.5917 16.0878L24.5923 16.0872L24.5984 16.0799L24.6045 16.0719L24.6052 16.0713L24.6113 16.064L24.6173 16.0561L24.6234 16.0482L24.6295 16.0402L24.6356 16.0323L24.6417 16.0244L24.6478 16.0164C24.6498 16.0138 24.6518 16.0111 24.6539 16.0085L24.66 16.0006L24.6655 15.9927L24.6716 15.9841C24.6728 15.9811 24.6747 15.9786 24.6771 15.9762L24.6826 15.9677C24.7836 15.8194 24.8589 15.6551 24.9052 15.4817L24.9076 15.4719L24.91 15.4628L24.9125 15.4536L24.9143 15.4445V15.4433C24.9152 15.4404 24.916 15.4376 24.9167 15.4347C24.9174 15.4319 24.918 15.4285 24.9186 15.4256L24.9192 15.425L24.921 15.4158L24.9228 15.4067V15.4061L24.9253 15.3969L24.9271 15.3878L24.9289 15.3786V15.3774L24.9314 15.3695V15.3683L24.9332 15.3597V15.3585L24.935 15.35V15.3494C24.935 15.3463 24.9363 15.3433 24.9369 15.3408V15.3396L24.9381 15.3317V15.3299L24.9399 15.3219V15.3207L24.9411 15.3122L24.9424 15.303V15.3018L24.9442 15.2939V15.2921C24.9445 15.2894 24.9449 15.2868 24.9454 15.2841V15.2823L24.9466 15.2744V15.2732C24.9471 15.2703 24.9475 15.2675 24.9478 15.2646V15.2634L24.9491 15.2555V15.2543L24.9503 15.2451L24.9515 15.2354L24.9521 15.2262L24.9527 15.2183V15.2158L24.9539 15.2085V15.2067L24.9564 15.1805V15.1732L24.957 15.1683V15.1616V15.1591L24.9582 15.1494L24.9594 15.1213L24.96 15.0927V15.0414V15.0323V15.0311V15.0225V15.0134V15.0116L24.9594 15.0043V15.0012V14.9945V14.9914L24.9588 14.9854V14.9811L24.9582 14.9756C24.9468 14.7596 24.8921 14.5481 24.7972 14.3536L24.7966 14.3518L24.793 14.3439L24.7923 14.3433L24.7887 14.336L24.7869 14.3329L24.7844 14.3268C24.7838 14.3258 24.7832 14.3248 24.7826 14.3238L24.7802 14.3189L24.7777 14.3146L24.7753 14.3097C24.7746 14.3085 24.774 14.3073 24.7734 14.3061L24.771 14.3012L24.7686 14.2969L24.7661 14.2927L24.7637 14.2884L24.7613 14.2847L24.7588 14.2799C24.7583 14.2786 24.7577 14.2774 24.757 14.2762L24.7539 14.2707L24.7521 14.2677C24.751 14.2656 24.7498 14.2635 24.7484 14.2616C24.748 14.2608 24.7476 14.26 24.7472 14.2591L24.7436 14.253L24.7423 14.2512L24.7387 14.2451C24.7371 14.2422 24.7355 14.2394 24.7338 14.2366L24.7326 14.2341L24.7289 14.228L24.7277 14.2256C24.7262 14.2236 24.7248 14.2216 24.7234 14.2195C24.7234 14.2195 24.7234 14.2183 24.7222 14.2177L24.7186 14.2116C24.7167 14.2087 24.7149 14.2059 24.7131 14.203C24.7112 14.2003 24.7093 14.1974 24.7076 14.1945L24.707 14.1933L24.7027 14.1866L24.7015 14.1847C24.7001 14.1827 24.6987 14.1807 24.6972 14.1786C24.6968 14.1781 24.6964 14.1774 24.696 14.1768L24.6917 14.1707L24.6911 14.1683C24.6895 14.1663 24.6878 14.1643 24.6863 14.1622C24.6863 14.1616 24.6863 14.161 24.685 14.1604L24.6808 14.1543L24.6802 14.1524L24.6753 14.1463C24.6749 14.1457 24.6745 14.1451 24.6741 14.1445L24.6698 14.1378L24.6686 14.1366L24.6637 14.1299L24.6631 14.1286C24.6614 14.1262 24.6598 14.1238 24.6582 14.1213L24.6576 14.1207L24.6521 14.1134V14.1128L24.646 14.1055L24.6399 14.0975L24.6344 14.0896L24.6283 14.0823V14.0811L24.6222 14.0744L24.6161 14.0665L24.61 14.0585C24.608 14.0561 24.6059 14.0537 24.6039 14.0512L24.5978 14.0439L24.5972 14.0427L24.5911 14.036C24.589 14.0336 24.587 14.0305 24.585 14.028L24.5789 14.0207C24.5639 14.0031 24.5478 13.9858 24.532 13.9689L24.5253 13.9616L24.5247 13.961L24.5186 13.9543L24.5167 13.953L24.4972 13.9323C23.4381 12.8518 21.7125 10.5408 21.7119 7.00548C21.7119 6.85426 21.7149 6.7006 21.721 6.54511C21.7271 6.39572 21.7302 6.24938 21.7302 6.1067C21.7289 1.95122 19.1893 0.712192 17.646 0.346949C17.3667 0.280893 17.0806 0.247539 16.7936 0.247559C15.2911 0.247559 13.9192 1.16951 13.4192 2.58902ZM12.5289 5.2506H12.5606C12.5423 5.2506 12.5241 5.25121 12.5058 5.25304C12.5137 5.2506 12.5192 5.2506 12.5289 5.2506ZM12.1442 5.43597C12.1615 5.41796 12.1805 5.40162 12.2009 5.38719C12.182 5.40548 12.157 5.42377 12.1442 5.44207V5.43597Z" fill="url(#paint0_linear_658_347)"/>
</g>
<mask id="mask1_658_347" style="mask-type:luminance" maskUnits="userSpaceOnUse" x="12" y="4" width="1" height="1">
<path d="M12.5554 4.91528C12.5346 4.91528 12.5237 4.91528 12.5029 4.92565C12.5444 4.91528 12.5761 4.91528 12.6066 4.91528H12.5554Z" fill="white"/>
</mask>
<g mask="url(#mask1_658_347)">
<path fill-rule="evenodd" clip-rule="evenodd" d="M12.5554 4.91528C12.5346 4.91528 12.5237 4.91528 12.5029 4.92565C12.5444 4.91528 12.5761 4.91528 12.6066 4.91528H12.5554Z" fill="url(#paint1_radial_658_347)"/>
</g>
<mask id="mask2_658_347" style="mask-type:luminance" maskUnits="userSpaceOnUse" x="13" y="6" width="1" height="1">
<path d="M13.5215 6.10002C13.5422 6.08051 13.5471 6.04697 13.5489 6.01831L13.5215 6.10002Z" fill="white"/>
</mask>
<g mask="url(#mask2_658_347)">
<path fill-rule="evenodd" clip-rule="evenodd" d="M13.5215 6.10002C13.5422 6.08051 13.5471 6.04697 13.5489 6.01831L13.5215 6.10002Z" fill="url(#paint2_radial_658_347)"/>
</g>
<mask id="mask3_658_347" style="mask-type:luminance" maskUnits="userSpaceOnUse" x="12" y="5" width="1" height="1">
<path d="M12.1758 5.48173V5.49149C12.1965 5.46039 12.238 5.42929 12.2697 5.39819C12.238 5.41893 12.2069 5.45002 12.1758 5.48112" fill="white"/>
</mask>
<g mask="url(#mask3_658_347)">
<path fill-rule="evenodd" clip-rule="evenodd" d="M12.1758 5.48173V5.49149C12.1965 5.46039 12.238 5.42929 12.2697 5.39819C12.238 5.41893 12.2069 5.45063 12.1758 5.48173Z" fill="url(#paint3_radial_658_347)"/>
</g>
<mask id="mask4_658_347" style="mask-type:luminance" maskUnits="userSpaceOnUse" x="12" y="4" width="1" height="2">
<path d="M12.8452 4.91528C12.805 4.91528 12.7794 4.91528 12.7458 4.92748C12.8215 4.91894 12.8995 4.91528 12.9776 4.91528H12.8446H12.8452ZM12.5891 4.9537C12.6324 4.94638 12.6751 4.94272 12.7129 4.94272C12.7234 4.93684 12.7344 4.93194 12.7458 4.92809C12.6933 4.93351 12.6412 4.94206 12.5897 4.9537H12.5891ZM12.3678 5.02565C12.4379 4.99394 12.5123 4.97077 12.5897 4.9537C12.5147 4.96589 12.4355 4.99028 12.3672 5.02565H12.3678Z" fill="white"/>
</mask>
<g mask="url(#mask4_658_347)">
<path fill-rule="evenodd" clip-rule="evenodd" d="M12.8452 4.91528C12.805 4.91528 12.7794 4.91528 12.7458 4.92748C12.8215 4.91894 12.8995 4.91528 12.9776 4.91528H12.8452ZM12.5891 4.9537C12.6324 4.94638 12.6751 4.94272 12.7129 4.94272C12.7234 4.93684 12.7344 4.93133 12.7458 4.92748C12.6933 4.9329 12.6406 4.94206 12.5891 4.9537ZM12.3678 5.02565C12.4379 4.99394 12.5117 4.97077 12.5891 4.9537C12.5141 4.96589 12.4355 4.99028 12.3672 5.02565H12.3678Z" fill="url(#paint4_radial_658_347)"/>
</g>
<mask id="mask5_658_347" style="mask-type:luminance" maskUnits="userSpaceOnUse" x="13" y="5" width="1" height="2">
<path d="M13.4697 6.09448C13.4911 6.06338 13.5112 6.04204 13.5216 6.01095C13.5325 6.00119 13.5325 5.98046 13.5325 5.96948L13.4697 6.09448Z" fill="white"/>
</mask>
<g mask="url(#mask5_658_347)">
<path fill-rule="evenodd" clip-rule="evenodd" d="M13.4697 6.09448C13.4911 6.06338 13.5112 6.04204 13.5216 6.01095C13.5325 6.00119 13.5325 5.98046 13.5325 5.96948L13.4697 6.09448Z" fill="url(#paint5_radial_658_347)"/>
</g>
<mask id="mask6_658_347" style="mask-type:luminance" maskUnits="userSpaceOnUse" x="11" y="5" width="2" height="1">
<path d="M12.0381 5.43108C12.0387 5.42914 12.0395 5.42729 12.0406 5.42559L12.1229 5.23291C12.0906 5.29815 12.0619 5.3634 12.0375 5.43108M11.9576 5.75791C11.9741 5.64023 12.0009 5.53352 12.0381 5.43108C11.9859 5.53218 11.9581 5.64412 11.957 5.75791" fill="white"/>
</mask>
<g mask="url(#mask6_658_347)">
<path fill-rule="evenodd" clip-rule="evenodd" d="M12.0381 5.43108C12.0387 5.42914 12.0395 5.42729 12.0406 5.42559L12.1229 5.23291C12.0906 5.29815 12.0625 5.3634 12.0381 5.43108ZM11.9576 5.75791C11.9741 5.64023 12.0009 5.53352 12.0381 5.43108C11.9859 5.53218 11.9581 5.64412 11.957 5.75791" fill="url(#paint6_radial_658_347)"/>
</g>
<mask id="mask7_658_347" style="mask-type:luminance" maskUnits="userSpaceOnUse" x="13" y="5" width="1" height="2">
<path d="M13.4697 6.09448C13.4911 6.06338 13.5112 6.04204 13.5216 6.01095C13.5325 6.00119 13.5325 5.98046 13.5325 5.96948L13.4697 6.09448Z" fill="white"/>
</mask>
<g mask="url(#mask7_658_347)">
<path fill-rule="evenodd" clip-rule="evenodd" d="M13.4697 6.09448C13.4911 6.06338 13.5112 6.04204 13.5216 6.01095C13.5325 6.00119 13.5325 5.98046 13.5325 5.96948L13.4697 6.09448Z" fill="url(#paint7_radial_658_347)"/>
</g>
<mask id="mask8_658_347" style="mask-type:luminance" maskUnits="userSpaceOnUse" x="0" y="0" width="18" height="30">
<path d="M9.37232 0.245808C8.24427 0.245808 6.59244 0.46532 5.3089 1.54825C4.10159 2.57264 3.48756 4.12751 3.48817 6.17203C3.48817 6.3269 3.49183 6.48422 3.49854 6.64459C3.50525 6.80068 3.50829 6.95434 3.50829 7.10556C3.52535 9.69346 2.5225 12.1839 0.71683 14.0379C0.418349 14.3391 0.250921 14.7461 0.250977 15.1702C0.251586 15.5763 0.407684 15.9818 0.71683 16.2982C1.78146 17.3787 3.50768 19.6836 3.50829 23.2239C3.50829 23.3751 3.50525 23.5287 3.49854 23.6848C3.49244 23.8342 3.48939 23.9806 3.48939 24.1238C3.48451 28.2781 6.01866 29.5117 7.56744 29.8769C7.85159 29.9513 8.14183 29.9824 8.42537 29.9824C9.9272 29.9824 11.3022 29.0598 11.7943 27.6415L13.1693 24.6385L17.1309 15.9696C17.254 15.697 17.3156 15.4043 17.3144 15.1123C17.3139 14.816 17.2492 14.5233 17.1248 14.2543L15.3016 10.2239C15.1693 9.93239 14.8284 9.80251 14.5321 9.93239C14.4292 9.97642 14.3415 10.0498 14.2801 10.1434C14.2187 10.237 14.1863 10.3467 14.187 10.4586C14.187 10.5348 14.2028 10.6129 14.2357 10.6879L16.065 14.7184C16.1217 14.8458 16.1504 14.9787 16.1504 15.1123C16.1504 15.2452 16.1217 15.3781 16.065 15.505L12.1095 24.1745L10.7156 27.2208C10.2991 28.3976 9.06927 29.0604 7.83878 28.7696C5.71683 28.2678 4.64854 26.7025 4.65098 24.1232C4.65098 23.9958 4.65403 23.8671 4.65951 23.7348C4.66683 23.5617 4.67049 23.3903 4.67049 23.222C4.66988 19.283 2.74122 16.711 1.55585 15.5056C1.4675 15.4156 1.4182 15.2944 1.41866 15.1684C1.41866 15.0464 1.46439 14.9239 1.55585 14.8312C3.57007 12.7693 4.68933 9.99587 4.67049 7.11349C4.67049 6.9452 4.66683 6.77446 4.65951 6.60129C4.65342 6.45922 4.65037 6.3202 4.65037 6.18361C4.65037 4.48239 5.12598 3.21837 6.06622 2.42142C7.74427 0.997028 10.4187 1.46776 10.4443 1.46776C10.7595 1.52995 11.0687 1.32569 11.1254 1.01593C11.1326 0.980402 11.1362 0.944252 11.1363 0.908003C11.1353 0.774277 11.0876 0.645106 11.0016 0.542719C10.9156 0.440332 10.7965 0.371132 10.665 0.347028C10.2384 0.276508 9.80653 0.242644 9.37415 0.245808H9.37232Z" fill="white"/>
</mask>
<g mask="url(#mask8_658_347)">
<path fill-rule="evenodd" clip-rule="evenodd" d="M9.37232 0.245808C8.24427 0.245808 6.59244 0.46532 5.3089 1.54825C4.10159 2.57264 3.48756 4.12751 3.48817 6.17203C3.48817 6.3269 3.49183 6.48422 3.49854 6.64459C3.50525 6.80068 3.50829 6.95434 3.50829 7.10556C3.52535 9.69346 2.5225 12.1839 0.71683 14.0379C0.418349 14.3391 0.250921 14.7461 0.250977 15.1702C0.251586 15.5763 0.407684 15.9818 0.71683 16.2982C1.78146 17.3787 3.50768 19.6836 3.50829 23.2239C3.50829 23.3751 3.50525 23.5287 3.49854 23.6848C3.49244 23.8342 3.48939 23.9806 3.48939 24.1238C3.48451 28.2781 6.01866 29.5117 7.56744 29.8769C7.85159 29.9513 8.14183 29.9824 8.42537 29.9824C9.9272 29.9824 11.3022 29.0598 11.7943 27.6415L13.1693 24.6385L17.1309 15.9696C17.254 15.697 17.3156 15.4043 17.3144 15.1123C17.3139 14.816 17.2492 14.5233 17.1248 14.2543L15.3016 10.2239C15.1693 9.93239 14.8284 9.80251 14.5321 9.93239C14.4292 9.97642 14.3415 10.0498 14.2801 10.1434C14.2187 10.237 14.1863 10.3467 14.187 10.4586C14.187 10.5348 14.2028 10.6129 14.2357 10.6879L16.065 14.7184C16.1217 14.8458 16.1504 14.9787 16.1504 15.1123C16.1504 15.2452 16.1217 15.3781 16.065 15.505L12.1095 24.1745L10.7156 27.2208C10.2991 28.3976 9.06927 29.0604 7.83878 28.7696C5.71683 28.2678 4.64854 26.7025 4.65098 24.1232C4.65098 23.9958 4.65403 23.8671 4.65951 23.7348C4.66683 23.5617 4.67049 23.3903 4.67049 23.222C4.66988 19.283 2.74122 16.711 1.55585 15.5056C1.4675 15.4156 1.4182 15.2944 1.41866 15.1684C1.41866 15.0464 1.46439 14.9239 1.55585 14.8312C3.57007 12.7693 4.68933 9.99587 4.67049 7.11349C4.67049 6.9452 4.66683 6.77446 4.65951 6.60129C4.65342 6.45922 4.65037 6.3202 4.65037 6.18361C4.65037 4.48239 5.12598 3.21837 6.06622 2.42142C7.74427 0.997028 10.4187 1.46776 10.4443 1.46776C10.7595 1.52995 11.0687 1.32569 11.1254 1.01593C11.1326 0.980402 11.1362 0.944252 11.1363 0.908003C11.1353 0.774277 11.0876 0.645106 11.0016 0.542719C10.9156 0.440332 10.7965 0.371132 10.665 0.347028C10.2384 0.276508 9.80653 0.242644 9.37415 0.245808H9.37232Z" fill="url(#paint8_linear_658_347)"/>
</g>
</g>
<defs>
<linearGradient id="paint0_linear_658_347" x1="860.756" y1="-30.7063" x2="860.756" y2="3024.63" gradientUnits="userSpaceOnUse">
<stop stop-color="#41BFB8"/>
<stop offset="1" stop-color="#369CC3"/>
</linearGradient>
<radialGradient id="paint1_radial_658_347" cx="0" cy="0" r="1" gradientUnits="userSpaceOnUse" gradientTransform="translate(-210.4 72.3084) scale(975.232 97.5233)">
<stop stop-color="#F9EB31"/>
<stop offset="1" stop-color="#F6911D"/>
</radialGradient>
<radialGradient id="paint2_radial_658_347" cx="0" cy="0" r="1" gradientUnits="userSpaceOnUse" gradientTransform="translate(-57.2905 491.875) scale(258.15 768.712)">
<stop stop-color="#F9EB31"/>
<stop offset="1" stop-color="#F6911D"/>
</radialGradient>
<radialGradient id="paint3_radial_658_347" cx="0" cy="0" r="1" gradientUnits="userSpaceOnUse" gradientTransform="translate(-168.056 602.014) scale(883.446 877.708)">
<stop stop-color="#F9EB31"/>
<stop offset="1" stop-color="#F6911D"/>
</radialGradient>
<radialGradient id="paint4_radial_658_347" cx="0" cy="0" r="1" gradientUnits="userSpaceOnUse" gradientTransform="translate(-1285.7 717.162) scale(5742.39 1038.34)">
<stop stop-color="#F9EB31"/>
<stop offset="1" stop-color="#F6911D"/>
</radialGradient>
<radialGradient id="paint5_radial_658_347" cx="0" cy="0" r="1" gradientUnits="userSpaceOnUse" gradientTransform="translate(-144.959 751.426) scale(590.876 1176.01)">
<stop stop-color="#F9EB31"/>
<stop offset="1" stop-color="#F6911D"/>
</radialGradient>
<radialGradient id="paint6_radial_658_347" cx="0" cy="0" r="1" gradientUnits="userSpaceOnUse" gradientTransform="translate(-297.361 3275.25) scale(1560.37 4939.26)">
<stop stop-color="#F9EB31"/>
<stop offset="1" stop-color="#F6911D"/>
</radialGradient>
<radialGradient id="paint7_radial_658_347" cx="0" cy="0" r="1" gradientUnits="userSpaceOnUse" gradientTransform="translate(-144.959 751.426) scale(590.876 1176.01)">
<stop stop-color="#F9EB31"/>
<stop offset="1" stop-color="#F6911D"/>
</radialGradient>
<linearGradient id="paint8_linear_658_347" x1="853.423" y1="-30.532" x2="853.423" y2="3024.83" gradientUnits="userSpaceOnUse">
<stop stop-color="#41BFB8"/>
<stop offset="1" stop-color="#369CC3"/>
</linearGradient>
<clipPath id="clip0_658_347">
<rect width="25" height="30.4878" fill="white" transform="translate(0.157227)"/>
</clipPath>
</defs>
</svg>
