<svg width="41" height="41" viewBox="0 0 41 41" fill="none" xmlns="http://www.w3.org/2000/svg">
<g clip-path="url(#clip0_647_1790)">
<path d="M0.5 34.9929C0.5 37.8417 2.80922 40.1506 5.65766 40.1506H35.3422C38.1911 40.1506 40.5 37.8414 40.5 34.9929V5.30839C40.5 2.45948 38.1908 0.150574 35.3423 0.150574H5.65781C2.80891 0.150574 0.5 2.45979 0.5 5.30823V34.9929Z" fill="#64748B"/>
<path d="M17.0872 17.844V12.1795H22.0733C22.5483 12.1795 23.0061 12.219 23.447 12.2982C23.888 12.3773 24.2781 12.5185 24.6173 12.7221C24.9564 12.9257 25.2278 13.2084 25.4314 13.5701C25.6348 13.932 25.7367 14.3956 25.7367 14.9607C25.7367 15.9784 25.4314 16.7134 24.8208 17.1656C24.2103 17.6179 23.4302 17.844 22.4803 17.844H17.0872ZM11.7617 8.0412V32.2599H23.498C24.5834 32.2599 25.6406 32.1243 26.6695 31.8529C27.6984 31.5815 28.6142 31.1632 29.417 30.5979C30.2197 30.0326 30.8586 29.3032 31.3334 28.4101C31.8084 27.5168 32.0458 26.4596 32.0458 25.2385C32.0458 23.7234 31.6783 22.4289 30.9434 21.3548C30.2084 20.2806 29.0947 19.5287 27.6022 19.099C28.6877 18.579 29.5075 17.9118 30.0616 17.0978C30.6155 16.2837 30.8925 15.2662 30.8925 14.0449C30.8925 12.9143 30.7059 11.9646 30.3328 11.1957C29.9597 10.427 29.4339 9.81073 28.7555 9.34714C28.0772 8.88354 27.2631 8.54995 26.3133 8.34651C25.3636 8.14292 24.312 8.0412 23.1588 8.0412H11.7617ZM17.0872 28.1217V21.4734H22.8873C24.0406 21.4734 24.9678 21.739 25.6689 22.2706C26.3698 22.802 26.7205 23.6895 26.7205 24.9332C26.7205 25.5665 26.613 26.0865 26.3981 26.4935C26.1833 26.9006 25.895 27.2229 25.5331 27.4603C25.1714 27.6978 24.753 27.8673 24.2781 27.9692C23.8031 28.0707 23.3058 28.1217 22.7856 28.1217H17.0872Z" fill="white"/>
</g>
<defs>
<clipPath id="clip0_647_1790">
<rect width="40" height="40" fill="white" transform="translate(0.5 0.150574)"/>
</clipPath>
</defs>
</svg>
