<svg width="35" height="35" viewBox="0 0 35 35" fill="none" xmlns="http://www.w3.org/2000/svg">
<rect width="35" height="35" rx="10" fill="white"/>
<path d="M15.6953 26C14.6406 26 13.7266 25.8008 12.9531 25.4023C12.1797 24.9961 11.5781 24.4531 11.1484 23.7734C10.7266 23.0938 10.5156 22.3477 10.5156 21.5352V14.4102C10.5156 13.5898 10.7266 12.8438 11.1484 12.1719C11.5781 11.4922 12.1797 10.9531 12.9531 10.5547C13.7266 10.1484 14.6406 9.94531 15.6953 9.94531H19.3047C20.3594 9.94531 21.2734 10.1484 22.0469 10.5547C22.8281 10.9531 23.4297 11.4922 23.8516 12.1719C24.2734 12.8438 24.4844 13.5898 24.4844 14.4102V21.5352C24.4844 22.3477 24.2734 23.0938 23.8516 23.7734C23.4297 24.4531 22.8281 24.9961 22.0469 25.4023C21.2734 25.8008 20.3594 26 19.3047 26H15.6953ZM14.1602 20.6914H19.082L20.2891 20.5508L21.0273 19.8125L21.1914 18.8281V16.9766L20.9688 16.1094L20.0312 15.6992L20.9688 15.3477L21.1914 14.457V12.8984L21.0273 11.9141L20.2891 11.1641L19.082 11H14.1602V20.6914ZM15.4141 15.125V12.2422H19.0117L19.832 12.3711L19.7852 13.0625L19.9492 14.3633L19.7852 14.9844L19.0117 15.125H15.4141ZM15.4141 19.4492V16.3555H19.0352L19.832 16.4492L19.9492 17.1406V18.6992L19.7852 19.332L19.0117 19.4492H15.4141Z" fill="#09090A"/>
</svg>
