<svg xmlns="http://www.w3.org/2000/svg" width="96" height="96" fill="none"><g clip-path="url(#a)"><path fill="url(#b)" d="M48 96c26.51 0 48-21.49 48-48S74.51 0 48 0 0 21.49 0 48s21.49 48 48 48Z"/><path fill="#fff" d="m41.538 52.158-3.272 15.443a.817.817 0 0 1-.8.649h-7.72a.818.818 0 0 1-.8-.986l5.966-28.072a.628.628 0 0 1 .613-.495h8.112c.398 0 .694.368.611.756l-1.274 5.944H57.22c.52 0 .908.48.8.99l-1.09 5.124a.817.817 0 0 1-.8.647H41.539Zm-5.763-17.205 1.38-6.553a.816.816 0 0 1 .8-.65h28.299c.52 0 .908.478.8.986l-1.33 6.321a.817.817 0 0 1-.8.65H36.386a.625.625 0 0 1-.61-.754Z"/></g><defs><linearGradient id="b" x1="14.059" x2="81.941" y1="81.941" y2="14.059" gradientUnits="userSpaceOnUse"><stop offset="0" stop-color="#15B4FC"/><stop offset="1" stop-color="#04175E"/></linearGradient><clipPath id="a"><path fill="#fff" d="M0 0h96v96H0z"/></clipPath></defs></svg>